<?xml version="1.0" encoding="UTF-8"?>
<svg width="24px" height="24px" viewBox="0 0 24 24" version="1.1" xmlns="http://www.w3.org/2000/svg" xmlns:xlink="http://www.w3.org/1999/xlink">
    <title>Ikoner /Navigation /Bilder</title>
    <g id="Ikoner-/Navigation-/Bilder" stroke="none" stroke-width="1" fill="none" fill-rule="evenodd">
        <path d="M5,3 L19,3 C20.05,3 20.9177686,3.82004132 20.9944872,4.85130541 L21,5 L21,19 C21,20.05 20.1799587,20.9177686 19.1486946,20.9944872 L19,21 L5,21 C3.95,21 3.0822314,20.1799587 3.00551277,19.1486946 L3,19 L3,5 C3,3.95 3.82004132,3.0822314 4.85130541,3.00551277 L5,3 L19,3 L5,3 Z M14,10 L10,14 L10,18 L18,18 L18,14 L14,10 Z M7,6 C5.8954305,6 5,6.8954305 5,8 C5,9.1045695 5.8954305,10 7,10 C8.1045695,10 9,9.1045695 9,8 C9,6.8954305 8.1045695,6 7,6 Z" id="Mask" fill="#512B2B"></path>
    </g>
</svg>