<?xml version="1.0" encoding="UTF-8"?>
<svg width="120px" height="120px" viewBox="0 0 120 120" version="1.1" xmlns="http://www.w3.org/2000/svg" xmlns:xlink="http://www.w3.org/1999/xlink">
    <!-- Generator: sketchtool 62 (101010) - https://sketch.com -->
    <title>DA856F0A-5167-4B3B-AB49-A1EC1E44AAF9</title>
    <desc>Created with sketchtool.</desc>
    <g id="Asset-Artboard-Page" stroke="none" stroke-width="1" fill="none" fill-rule="evenodd">
        <g id="Ikoner-/Interaktiva-/Pil-höger-Copy-39" fill="#512B2B">
            <path d="M60,15 C35.147168,15 15,35.1471683 15,60 C15,82.460802 31.4558496,101.077443 52.96875,104.453058 L52.96875,73.0078135 L41.5429688,73.0078135 L41.5429688,60 L52.96875,60 L52.96875,50.0859381 C52.96875,38.8078129 59.6869336,32.5781253 69.965918,32.5781253 C74.8892871,32.5781253 80.0390625,33.4570316 80.0390625,33.4570316 L80.0390625,44.5312505 L74.364668,44.5312505 C68.7745605,44.5312505 67.03125,48.0000299 67.03125,51.5587214 L67.03125,60 L79.5117188,60 L77.5166016,73.0078135 L67.03125,73.0078135 L67.03125,104.453058 C88.5441504,101.077443 105,82.460802 105,60 C105,35.1471683 84.852832,15 60,15 Z" id="Fill-1-Copy"></path>
        </g>
    </g>
</svg>