<?xml version="1.0" encoding="UTF-8"?>
<svg width="24px" height="24px" viewBox="0 0 24 24" version="1.1" xmlns="http://www.w3.org/2000/svg" xmlns:xlink="http://www.w3.org/1999/xlink">
    <!-- Generator: sketchtool 62 (101010) - https://sketch.com -->
    <title>22B12DB6-C2F8-4CDA-8AF2-7647F0120888</title>
    <desc>Created with sketchtool.</desc>
    <defs>
        <path d="M18,3 C19.1045695,3 20,3.8954305 20,5 L20,19 C20,20.1045695 19.1045695,21 18,21 L6,21 C4.8954305,21 4,20.1045695 4,19 L4,5 C4,3.8954305 4.8954305,3 6,3 L6,19 L18,19 L18,3 Z M16,15 L16,17 L8,17 L8,15 L16,15 Z M16,11 L16,13 L8,13 L8,11 L16,11 Z M16,7 L16,9 L8,9 L8,7 L16,7 Z M12,1 C13.3062521,1 14.4175144,1.8348501 14.8293257,3.00008893 L17,3 L17,5 L7,5 L7,3 L9.17067428,3.00008893 C9.58248558,1.8348501 10.6937479,1 12,1 Z" id="path-1"></path>
    </defs>
    <g id="Asset-Artboard-Page" stroke="none" stroke-width="1" fill="none" fill-rule="evenodd">
        <g id="Ikoner-/Interaktiva-/Pil-höger-Copy-46">
            <mask id="mask-2" fill="white">
                <use xlink:href="#path-1"></use>
            </mask>
            <use id="Shape" fill="#512B2B" xlink:href="#path-1"></use>
            <g id="COLOR/-Text-brun" mask="url(#mask-2)" fill="#512B2B">
                <rect id="Rectangle" x="0" y="0" width="24" height="24"></rect>
            </g>
        </g>
    </g>
</svg>