<?xml version="1.0" encoding="UTF-8"?>
<svg width="24px" height="24px" viewBox="0 0 24 24" version="1.1" xmlns="http://www.w3.org/2000/svg" xmlns:xlink="http://www.w3.org/1999/xlink">
    <title>Ikoner /Navigation /Planritning</title>
    <g id="Ikoner-/Navigation-/Planritning" stroke="none" stroke-width="1" fill="none" fill-rule="evenodd">
        <path d="M11,15 L11,10 L19,10 L19,5 L12,5 L12,8 L11,8 L11,5 L5,5 L5,19 L11,19 L11,17 L12,17 L12,19 L19,19 L19,16 L21,16 L21,19 C21,20.1045695 20.1045695,21 19,21 L5,21 C3.8954305,21 3,20.1045695 3,19 L3,5 C3,3.8954305 3.8954305,3 5,3 L19,3 C20.1045695,3 21,3.8954305 21,5 L21,13 L19,13 L19,11 L12,11 L12,15 L11,15 Z" id="Path" fill="#512B2B" fill-rule="nonzero"></path>
    </g>
</svg>