<?xml version="1.0" encoding="UTF-8"?>
<svg version="1.1" viewBox="0 0 73 72" xmlns="http://www.w3.org/2000/svg">
<g fill="none" fill-rule="evenodd">
<g transform="translate(.81126)" fill="#512B2B">
<g transform="translate(12.015 10.838)">
<polygon points="5.862e-13 40.162 47.979 40.162 47.979 36.964 5.862e-13 36.964"/>
<polygon points="23.991 2.6645e-15 5.8886e-13 14.061 5.8886e-13 17.769 23.991 3.708 47.979 17.769 47.979 14.061"/>
<path d="m2.109 28.663c0.939 0 1.254-0.339 1.254-0.909 0-0.567-0.306-0.951-1.254-0.951h-0.918v1.86h0.918zm0.018-2.649c0.672 0 0.948-0.357 0.948-0.846 0-0.48-0.267-0.774-0.966-0.774h-0.918v1.62h0.936zm-2.127 3.627v-6.225h2.49c0.996 0 1.77 0.597 1.77 1.503 0 0.675-0.438 1.236-0.936 1.422 0.786 0.231 1.263 0.846 1.263 1.602 0 1.023-0.87 1.698-2.043 1.698h-2.544z"/>
<polygon points="5.484 29.64 5.484 23.415 9.405 23.415 9.405 24.393 6.666 24.393 6.666 25.827 8.73 25.827 8.73 26.805 6.666 26.805 6.666 28.662 9.504 28.662 9.504 29.64"/>
<path d="m13.087 24.866c-0.186-0.381-0.426-0.579-0.792-0.579-0.405 0-0.672 0.24-0.672 0.633 0 0.327 0.183 0.54 0.558 0.738 0.303 0.159 1.005 0.453 1.191 0.549 0.435 0.216 1.041 0.756 1.041 1.671 0 1.077-0.837 1.833-2.118 1.833-0.933 0-1.761-0.408-2.241-1.422l0.918-0.489c0.309 0.624 0.729 0.933 1.314 0.933 0.483 0 0.954-0.213 0.954-0.792 0-0.417-0.249-0.684-0.624-0.879-0.114-0.063-0.594-0.276-0.915-0.426-0.606-0.276-1.182-0.792-1.182-1.665 0-0.924 0.648-1.626 1.776-1.626 0.678 0 1.29 0.258 1.71 1.068l-0.918 0.453z"/>
<polygon points="15.432 29.641 16.614 29.641 16.614 23.416 15.432 23.416"/>
<polygon points="21.624 29.64 19.215 26.814 19.215 29.64 18.033 29.64 18.033 23.415 19.215 23.415 19.215 26.109 21.501 23.415 22.932 23.415 20.352 26.421 23.109 29.64"/>
<polygon points="25.06 29.64 25.06 24.393 23.407 24.393 23.407 23.415 27.898 23.415 27.898 24.393 26.245 24.393 26.245 29.64"/>
<polygon points="28.788 29.641 29.973 29.641 29.973 23.416 28.788 23.416"/>
<path d="m35.718 29.64-0.078-0.801c-0.474 0.474-1.023 0.873-1.86 0.873-1.386 0-2.781-1.023-2.781-3.183 0-2.16 1.404-3.183 2.949-3.183 0.927 0 1.734 0.363 2.19 1.182l-0.963 0.534c-0.273-0.426-0.654-0.705-1.245-0.705-0.948 0-1.704 0.729-1.704 2.19 0 1.458 0.765 2.151 1.788 2.151 0.468 0 0.996-0.15 1.35-0.807v-0.741h-1.128v-0.96h2.133v3.45h-0.651z"/>
<path d="m39.767 24.58-0.774 2.865h1.557l-0.783-2.865zm1.407 5.061-0.375-1.299h-2.055l-0.372 1.299h-1.2l1.992-6.225h1.215l1.992 6.225h-1.197z"/>
<path d="m44.965 28.663c0.936 0 1.848-0.525 1.848-2.133 0-1.602-0.912-2.136-1.848-2.136h-0.615v4.269h0.615zm-1.797 0.978v-6.225h1.938c1.512 0 2.934 0.933 2.934 3.114 0 2.178-1.422 3.111-2.934 3.111h-1.938z"/>
</g>
</g>
</g>
</svg>
