<?xml version="1.0" encoding="UTF-8"?>
<svg width="24px" height="24px" viewBox="0 0 24 24" version="1.1" xmlns="http://www.w3.org/2000/svg" xmlns:xlink="http://www.w3.org/1999/xlink">
    <title>Ikoner /Interaktiva /Information</title>
    <g id="Ikoner-/Interaktiva-/Information" stroke="none" stroke-width="1" fill="none" fill-rule="evenodd">
        <path d="M9.43844719,10 L12.1576708,10 C12.7099555,10 13.1576708,10.4477153 13.1576708,11 C13.1576708,11.0817618 13.1476434,11.163215 13.1278133,11.2425356 L11.688,17 L13.4384472,17 L13.4384472,18 L11,18 C9.8954305,18 9,17.1045695 9,16 C9,15.8364764 9.0200547,15.67357 9.059715,15.5149287 L10.188,11 L9.43844719,11 L9.43844719,10 Z M11.9384472,6 C12.7668743,6 13.4384472,6.67157288 13.4384472,7.5 C13.4384472,8.32842712 12.7668743,9 11.9384472,9 C11.1100201,9 10.4384472,8.32842712 10.4384472,7.5 C10.4384472,6.67157288 11.1100201,6 11.9384472,6 Z" id="Shape" fill="#512B2B"></path>
    </g>
</svg>