<?xml version="1.0" encoding="UTF-8"?>
<svg width="24px" height="24px" viewBox="0 0 24 24" version="1.1" xmlns="http://www.w3.org/2000/svg" xmlns:xlink="http://www.w3.org/1999/xlink">
    <title>Ikoner /Navigation /Logga in</title>
    <g id="Ikoner-/Navigation-/Logga-in" stroke="none" stroke-width="1" fill="none" fill-rule="evenodd">
        <path d="M14,4 C17.3137085,4 20,6.6862915 20,10 C20,13.3137085 17.3137085,16 14,16 C13.3938338,16 12.8086624,15.9101107 12.2570884,15.7429348 L11,17 L9,17 L9,19 L7,19 L7,21 L3,21 L3,17 L8.25736926,11.7439144 C8.08999828,11.1920469 8,10.6065336 8,10 C8,6.6862915 10.6862915,4 14,4 Z M14,7 C13.2406085,7 12.5471175,7.28215388 12.0186432,7.74734554 L11.8786797,7.87867966 L16.1213203,12.1213203 C16.6642136,11.5784271 17,10.8284271 17,10 C17,8.34314575 15.6568542,7 14,7 Z" id="Mask" fill="#512B2B"></path>
    </g>
</svg>