<?xml version="1.0" encoding="UTF-8"?>
<svg width="48px" height="48px" viewBox="0 0 48 48" version="1.1" xmlns="http://www.w3.org/2000/svg" xmlns:xlink="http://www.w3.org/1999/xlink">
    <!-- Generator: Sketch 59 (86127) - https://sketch.com -->
    <title>EXPORT / Pin / Sammanslagen / Orange</title>
    <desc>Created with Sketch.</desc>
    <defs>
        <path d="M38,0 C39.1045695,-2.02906125e-16 40,0.8954305 40,2 L40,30 C40,31.1045695 39.1045695,32 38,32 L25.76,32 L20,40 L14.24,32 L2,32 C0.8954305,32 1.3527075e-16,31.1045695 0,30 L0,2 C-1.3527075e-16,0.8954305 0.8954305,2.02906125e-16 2,0 L38,0 Z" id="path-1"></path>
        <filter x="-20.0%" y="-15.0%" width="140.0%" height="141.8%" filterUnits="objectBoundingBox" id="filter-2">
            <feMorphology radius="1" operator="dilate" in="SourceAlpha" result="shadowSpreadOuter1"></feMorphology>
            <feOffset dx="0" dy="2" in="shadowSpreadOuter1" result="shadowOffsetOuter1"></feOffset>
            <feGaussianBlur stdDeviation="2" in="shadowOffsetOuter1" result="shadowBlurOuter1"></feGaussianBlur>
            <feComposite in="shadowBlurOuter1" in2="SourceAlpha" operator="out" result="shadowBlurOuter1"></feComposite>
            <feColorMatrix values="0 0 0 0 0.976470588   0 0 0 0 0.854901961   0 0 0 0 0.91372549  0 0 0 0.5 0" type="matrix" in="shadowBlurOuter1"></feColorMatrix>
        </filter>
        <path d="M12,1 L17,6 L17,4 L20,4 L20,9 L23,12 L20,12 L20,21 L4,21 L4,12 L1,12 L12,1 Z M14,15 L17,15 L17,13.5 C17,12.6715729 16.3284271,12 15.5,12 C14.6715729,12 14,12.6715729 14,13.5 L14,15 Z M7,19 L11,19 L11,14 C11,12.8954305 10.1045695,12 9,12 C7.8954305,12 7,12.8954305 7,14 L7,19 Z" id="path-3"></path>
    </defs>
    <g id="EXPORT-/-Pin-/-Sammanslagen-/-Orange" stroke="none" stroke-width="1" fill="none" fill-rule="evenodd">
        <g id="Karta-/-Pin-/-Orange" transform="translate(4.000000, 4.000000)">
            <g id="Karta-/-Pin-/-Fyrkantpin-stor">
                <g id="Combined-Shape-Copy">
                    <use fill="black" fill-opacity="1" filter="url(#filter-2)" xlink:href="#path-1"></use>
                    <path stroke-opacity="0.5" stroke="#F9DAE9" stroke-width="1" d="M26.0161169,32.5 L20,40.8557179 L13.9838831,32.5 L2,32.5 C0.619288125,32.5 -0.5,31.3807119 -0.5,30 L-0.5,2 C-0.5,0.619288125 0.619288125,-0.5 2,-0.5 L38,-0.5 C39.3807119,-0.5 40.5,0.619288125 40.5,2 L40.5,30 C40.5,31.3807119 39.3807119,32.5 38,32.5 L26.0161169,32.5 Z" fill="#F07000" fill-rule="evenodd"></path>
                </g>
                <g id="Group-Copy" transform="translate(8.000000, 4.000000)">
                    <g id="Ikoner-/Navigation-/Hus">
                        <mask id="mask-4" fill="white">
                            <use xlink:href="#path-3"></use>
                        </mask>
                        <use id="Shape" fill="#512B2B" fill-rule="evenodd" xlink:href="#path-3"></use>
                        <g id="COLOR/-white" mask="url(#mask-4)" fill="#FFFFFF" fill-rule="evenodd">
                            <rect id="Rectangle" x="0" y="0" width="24" height="24"></rect>
                        </g>
                    </g>
                </g>
            </g>
        </g>
    </g>
</svg>