<?xml version="1.0" encoding="UTF-8"?>
<svg width="24px" height="24px" viewBox="0 0 24 24" version="1.1" xmlns="http://www.w3.org/2000/svg" xmlns:xlink="http://www.w3.org/1999/xlink">
    <title>Ikoner /Navigation /Sök</title>
    <g id="Ikoner-/Navigation-/Sök" stroke="none" stroke-width="1" fill="none" fill-rule="evenodd">
        <path d="M10,4 C13.3137085,4 16,6.6862915 16,10 C16,11.2954479 15.5894515,12.4950071 14.8913664,13.4756657 L15.415,14 L16.8284271,14 L20.4142136,17.5857864 C21.1952621,18.366835 21.1952621,19.633165 20.4142136,20.4142136 C19.6742728,21.1541543 18.4987886,21.1930986 17.7130012,20.5310463 L17.5857864,20.4142136 L14,16.8284271 L14,15.415 L13.4756657,14.8913664 C12.5520182,15.548868 11.4341821,15.9512933 10.2249383,15.9958615 L10,16 C6.6862915,16 4,13.3137085 4,10 C4,6.6862915 6.6862915,4 10,4 Z M10,6 C7.790861,6 6,7.790861 6,10 C6,12.209139 7.790861,14 10,14 C12.209139,14 14,12.209139 14,10 C14,7.790861 12.209139,6 10,6 Z" id="Mask" fill="#512B2B" fill-rule="nonzero"></path>
    </g>
</svg>