<?xml version="1.0" encoding="UTF-8"?>
<svg width="24px" height="24px" viewBox="0 0 24 24" version="1.1" xmlns="http://www.w3.org/2000/svg" xmlns:xlink="http://www.w3.org/1999/xlink">
    <title>Ikoner /Bostadstyp /Villa</title>
    <g id="Ikoner-/Bostadstyp-/Villa" stroke="none" stroke-width="1" fill="none" fill-rule="evenodd">
        <path d="M12,1 L17,6 L17,4 L20,4 L20,9 L23,12 L20,12 L20,21 L4,21 L4,12 L1,12 L12,1 Z M9,12 C7.8954305,12 7,12.8954305 7,14 L7,19 L11,19 L11,14 C11,12.8954305 10.1045695,12 9,12 Z M15.5,12 C14.6715729,12 14,12.6715729 14,13.5 L14,15 L17,15 L17,13.5 C17,12.6715729 16.3284271,12 15.5,12 Z" id="Shape" fill="#512B2B"></path>
    </g>
</svg>